# Blender v2.91.0 OBJ File: ''
# www.blender.org
mtllib zombie_fat.mtl
o body_Cube
v -1.001736 3.328823 1.269107
v -1.001736 1.328823 1.269107
v -1.001737 3.328823 -0.730893
v -1.001737 1.328823 -0.730893
v 0.998264 3.328823 1.269106
v 0.998264 1.328823 1.269106
v 0.998263 3.328823 -0.730894
v 0.998263 1.328823 -0.730894
vt 0.625000 0.500000
vt 0.875000 0.500000
vt 0.875000 0.750000
vt 0.625000 0.750000
vt 0.375000 0.750000
vt 0.625000 1.000000
vt 0.375000 1.000000
vt 0.375000 0.000000
vt 0.625000 0.000000
vt 0.625000 0.250000
vt 0.375000 0.250000
vt 0.125000 0.500000
vt 0.375000 0.500000
vt 0.125000 0.750000
vn 0.0000 1.0000 0.0000
vn -0.0000 0.0000 -1.0000
vn 1.0000 0.0000 -0.0000
vn 0.0000 -1.0000 -0.0000
vn -1.0000 0.0000 0.0000
vn 0.0000 0.0000 1.0000
usemtl Material
s off
f 1/1/1 5/2/1 7/3/1 3/4/1
f 4/5/2 3/4/2 7/6/2 8/7/2
f 8/8/3 7/9/3 5/10/3 6/11/3
f 6/12/4 2/13/4 4/5/4 8/14/4
f 2/13/5 1/1/5 3/4/5 4/5/5
f 6/11/6 5/10/6 1/1/6 2/13/6
o arm_l_Cube.001
v -1.043043 2.233736 0.018587
v -1.043043 2.751124 0.018587
v -1.043043 2.233736 0.535975
v -1.043043 2.751124 0.535975
v -1.560431 2.233736 0.018587
v -1.560431 2.751124 0.018587
v -1.560430 2.233736 0.535975
v -1.560430 2.751124 0.535975
v -1.043043 2.233736 -0.094771
v -1.043043 2.751124 -0.094771
v -1.560431 2.233736 -0.094771
v -1.560431 2.751124 -0.094771
v -1.043043 2.233736 -0.797762
v -1.043043 2.751124 -0.797762
v -1.560431 2.233736 -0.797762
v -1.560431 2.751124 -0.797762
vt 0.375000 0.000000
vt 0.625000 0.000000
vt 0.625000 0.250000
vt 0.375000 0.250000
vt 0.625000 0.500000
vt 0.375000 0.500000
vt 0.625000 0.750000
vt 0.375000 0.750000
vt 0.875000 0.750000
vt 0.875000 0.750000
vt 0.625000 0.750000
vt 0.125000 0.500000
vt 0.125000 0.750000
vt 0.875000 0.500000
vt 0.875000 0.750000
vt 0.625000 0.750000
vt 0.375000 0.750000
vt 0.375000 0.000000
vt 0.625000 0.000000
vt 0.125000 0.750000
vt 0.375000 0.750000
vt 0.625000 1.000000
vt 0.375000 1.000000
vt 0.125000 0.750000
vt 0.375000 0.000000
vt 0.625000 0.000000
vn 1.0000 0.0000 -0.0000
vn 0.0000 0.0000 1.0000
vn -1.0000 0.0000 0.0000
vn 0.0000 1.0000 0.0000
vn 0.0000 -1.0000 0.0000
vn -0.0000 0.0000 -1.0000
usemtl None
s off
f 9/15/7 10/16/7 12/17/7 11/18/7
f 11/18/8 12/17/8 16/19/8 15/20/8
f 15/20/9 16/19/9 14/21/9 13/22/9
f 14/21/10 10/23/10 18/24/10 20/25/10
f 11/26/11 15/20/11 13/22/11 9/27/11
f 16/19/10 12/28/10 10/23/10 14/21/10
f 20/25/10 18/24/10 22/29/10 24/30/10
f 13/22/9 14/21/9 20/25/9 19/31/9
f 10/16/7 9/15/7 17/32/7 18/33/7
f 9/27/11 13/22/11 19/31/11 17/34/11
f 23/35/12 24/30/12 22/36/12 21/37/12
f 19/31/9 20/25/9 24/30/9 23/35/9
f 17/34/11 19/31/11 23/35/11 21/38/11
f 18/33/7 17/32/7 21/39/7 22/40/7
o leg_l_Cube.003
v -0.161904 0.791893 0.528213
v -0.161904 0.793326 0.010827
v -0.161904 1.309279 0.529646
v -0.161904 1.310712 0.012260
v -0.679292 0.791893 0.528214
v -0.679292 0.793326 0.010828
v -0.679292 1.309279 0.529647
v -0.679292 1.310712 0.012261
v -0.161904 0.678534 0.527899
v -0.161904 0.679968 0.010513
v -0.679292 0.678534 0.527900
v -0.679292 0.679968 0.010514
v -0.161904 -0.024453 0.525952
v -0.161904 -0.023020 0.008566
v -0.679292 -0.024453 0.525952
v -0.679292 -0.023020 0.008566
vt 0.375000 0.000000
vt 0.625000 0.000000
vt 0.625000 0.250000
vt 0.375000 0.250000
vt 0.625000 0.500000
vt 0.375000 0.500000
vt 0.625000 0.750000
vt 0.375000 0.750000
vt 0.875000 0.750000
vt 0.875000 0.750000
vt 0.625000 0.750000
vt 0.125000 0.500000
vt 0.125000 0.750000
vt 0.875000 0.500000
vt 0.875000 0.750000
vt 0.625000 0.750000
vt 0.375000 0.750000
vt 0.375000 0.000000
vt 0.625000 0.000000
vt 0.125000 0.750000
vt 0.375000 0.750000
vt 0.625000 1.000000
vt 0.375000 1.000000
vt 0.125000 0.750000
vt 0.375000 0.000000
vt 0.625000 0.000000
vn 1.0000 0.0000 -0.0000
vn 0.0000 1.0000 0.0028
vn -1.0000 0.0000 0.0000
vn -0.0000 0.0028 -1.0000
vn 0.0000 -0.0028 1.0000
vn -0.0000 -1.0000 -0.0028
usemtl None
s off
f 25/41/13 26/42/13 28/43/13 27/44/13
f 27/44/14 28/43/14 32/45/14 31/46/14
f 31/46/15 32/45/15 30/47/15 29/48/15
f 30/47/16 26/49/16 34/50/16 36/51/16
f 27/52/17 31/46/17 29/48/17 25/53/17
f 32/45/16 28/54/16 26/49/16 30/47/16
f 36/51/16 34/50/16 38/55/16 40/56/16
f 29/48/15 30/47/15 36/51/15 35/57/15
f 26/42/13 25/41/13 33/58/13 34/59/13
f 25/53/17 29/48/17 35/57/17 33/60/17
f 39/61/18 40/56/18 38/62/18 37/63/18
f 35/57/15 36/51/15 40/56/15 39/61/15
f 33/60/17 35/57/17 39/61/17 37/64/17
f 34/59/13 33/58/13 37/65/13 38/66/13
o leg_r_Cube.004
v 0.676727 0.791893 0.528213
v 0.676727 0.793326 0.010827
v 0.676727 1.309278 0.529646
v 0.676727 1.310712 0.012260
v 0.159339 0.791893 0.528213
v 0.159339 0.793326 0.010827
v 0.159339 1.309278 0.529646
v 0.159339 1.310712 0.012261
v 0.676727 0.678534 0.527899
v 0.676727 0.679967 0.010513
v 0.159339 0.678534 0.527899
v 0.159339 0.679967 0.010514
v 0.676727 -0.024454 0.525952
v 0.676727 -0.023021 0.008566
v 0.159339 -0.024454 0.525952
v 0.159339 -0.023021 0.008566
vt 0.375000 0.000000
vt 0.625000 0.000000
vt 0.625000 0.250000
vt 0.375000 0.250000
vt 0.625000 0.500000
vt 0.375000 0.500000
vt 0.625000 0.750000
vt 0.375000 0.750000
vt 0.875000 0.750000
vt 0.875000 0.750000
vt 0.625000 0.750000
vt 0.125000 0.500000
vt 0.125000 0.750000
vt 0.875000 0.500000
vt 0.875000 0.750000
vt 0.625000 0.750000
vt 0.375000 0.750000
vt 0.375000 0.000000
vt 0.625000 0.000000
vt 0.125000 0.750000
vt 0.375000 0.750000
vt 0.625000 1.000000
vt 0.375000 1.000000
vt 0.125000 0.750000
vt 0.375000 0.000000
vt 0.625000 0.000000
vn 1.0000 0.0000 -0.0000
vn 0.0000 1.0000 0.0028
vn -1.0000 0.0000 0.0000
vn -0.0000 0.0028 -1.0000
vn 0.0000 -0.0028 1.0000
vn -0.0000 -1.0000 -0.0028
usemtl None
s off
f 41/67/19 42/68/19 44/69/19 43/70/19
f 43/70/20 44/69/20 48/71/20 47/72/20
f 47/72/21 48/71/21 46/73/21 45/74/21
f 46/73/22 42/75/22 50/76/22 52/77/22
f 43/78/23 47/72/23 45/74/23 41/79/23
f 48/71/22 44/80/22 42/75/22 46/73/22
f 52/77/22 50/76/22 54/81/22 56/82/22
f 45/74/21 46/73/21 52/77/21 51/83/21
f 42/68/19 41/67/19 49/84/19 50/85/19
f 41/79/23 45/74/23 51/83/23 49/86/23
f 55/87/24 56/82/24 54/88/24 53/89/24
f 51/83/21 52/77/21 56/82/21 55/87/21
f 49/86/23 51/83/23 55/87/23 53/90/23
f 50/85/19 49/84/19 53/91/19 54/92/19
o arm_r_Cube.005
v 1.556958 2.233736 0.018587
v 1.556958 2.751124 0.018587
v 1.556958 2.233736 0.535975
v 1.556958 2.751124 0.535975
v 1.039570 2.233736 0.018587
v 1.039570 2.751124 0.018587
v 1.039570 2.233736 0.535975
v 1.039570 2.751124 0.535975
v 1.556958 2.233736 -0.094772
v 1.556958 2.751124 -0.094772
v 1.039570 2.233736 -0.094771
v 1.039570 2.751124 -0.094771
v 1.556957 2.233736 -0.797762
v 1.556957 2.751124 -0.797762
v 1.039569 2.233736 -0.797762
v 1.039569 2.751124 -0.797762
vt 0.375000 0.000000
vt 0.625000 0.000000
vt 0.625000 0.250000
vt 0.375000 0.250000
vt 0.625000 0.500000
vt 0.375000 0.500000
vt 0.625000 0.750000
vt 0.375000 0.750000
vt 0.875000 0.750000
vt 0.875000 0.750000
vt 0.625000 0.750000
vt 0.125000 0.500000
vt 0.125000 0.750000
vt 0.875000 0.500000
vt 0.875000 0.750000
vt 0.625000 0.750000
vt 0.375000 0.750000
vt 0.375000 0.000000
vt 0.625000 0.000000
vt 0.125000 0.750000
vt 0.375000 0.750000
vt 0.625000 1.000000
vt 0.375000 1.000000
vt 0.125000 0.750000
vt 0.375000 0.000000
vt 0.625000 0.000000
vn 1.0000 0.0000 -0.0000
vn 0.0000 0.0000 1.0000
vn -1.0000 0.0000 0.0000
vn 0.0000 1.0000 0.0000
vn 0.0000 -1.0000 0.0000
vn -0.0000 0.0000 -1.0000
usemtl None
s off
f 57/93/25 58/94/25 60/95/25 59/96/25
f 59/96/26 60/95/26 64/97/26 63/98/26
f 63/98/27 64/97/27 62/99/27 61/100/27
f 62/99/28 58/101/28 66/102/28 68/103/28
f 59/104/29 63/98/29 61/100/29 57/105/29
f 64/97/28 60/106/28 58/101/28 62/99/28
f 68/103/28 66/102/28 70/107/28 72/108/28
f 61/100/27 62/99/27 68/103/27 67/109/27
f 58/94/25 57/93/25 65/110/25 66/111/25
f 57/105/29 61/100/29 67/109/29 65/112/29
f 71/113/30 72/108/30 70/114/30 69/115/30
f 67/109/27 68/103/27 72/108/27 71/113/27
f 65/112/29 67/109/29 71/113/29 69/116/29
f 66/111/25 65/110/25 69/117/25 70/118/25
o Head_Cube.006
v 0.341253 3.327560 -0.075992
v 0.341253 4.003119 -0.075992
v 0.341253 3.327560 0.599566
v 0.341253 4.003119 0.599566
v -0.334306 3.327560 -0.075992
v -0.334306 4.003119 -0.075992
v -0.334306 3.327560 0.599566
v -0.334306 4.003119 0.599566
vt 0.375000 0.000000
vt 0.625000 0.000000
vt 0.625000 0.250000
vt 0.375000 0.250000
vt 0.625000 0.500000
vt 0.375000 0.500000
vt 0.625000 0.750000
vt 0.375000 0.750000
vt 0.625000 1.000000
vt 0.375000 1.000000
vt 0.125000 0.500000
vt 0.125000 0.750000
vt 0.875000 0.500000
vt 0.875000 0.750000
vn 1.0000 0.0000 -0.0000
vn 0.0000 0.0000 1.0000
vn -1.0000 0.0000 0.0000
vn -0.0000 0.0000 -1.0000
vn 0.0000 -1.0000 0.0000
vn 0.0000 1.0000 0.0000
usemtl None
s off
f 73/119/31 74/120/31 76/121/31 75/122/31
f 75/122/32 76/121/32 80/123/32 79/124/32
f 79/124/33 80/123/33 78/125/33 77/126/33
f 77/126/34 78/125/34 74/127/34 73/128/34
f 75/129/35 79/124/35 77/126/35 73/130/35
f 80/123/36 76/131/36 74/132/36 78/125/36
